<?xml version="1.0" standalone="no"?>
<!DOCTYPE svg PUBLIC "-//W3C//DTD SVG 20010904//EN"
 "http://www.w3.org/TR/2001/REC-SVG-20010904/DTD/svg10.dtd">
<svg version="1.0" xmlns="http://www.w3.org/2000/svg"
 width="100" height="100" viewBox="0 0 289.000000 169.000000"
 preserveAspectRatio="xMidYMid meet">

<g transform="translate(0.000000,169.000000) scale(0.100000,-0.100000)"
fill="red" stroke="none">
<path d="M1644 1626 c-96 -22 -107 -27 -223 -107 -92 -63 -117 -85 -102 -87
29 -5 26 -19 -6 -36 -47 -23 -87 -28 -117 -12 -28 14 -70 11 -60 -6 12 -19 50
-25 107 -18 46 7 66 16 97 44 29 26 49 36 73 36 17 0 41 3 52 6 35 9 55 -40
49 -122 -5 -58 -2 -74 15 -102 65 -103 224 -95 276 14 34 72 8 152 -66 202
-20 14 -39 38 -47 60 l-12 36 57 58 c68 68 66 69 -93 34z"/>
<path d="M2099 1440 c-57 -30 -64 -44 -32 -65 36 -24 123 -105 123 -116 0 -16
-129 -103 -212 -144 -155 -76 -244 -71 -436 27 -131 66 -135 66 -251 21 -91
-36 -192 -105 -245 -166 -24 -29 -77 -104 -118 -167 -87 -133 -163 -214 -240
-253 -42 -21 -77 -29 -163 -37 -60 -6 -110 -12 -112 -14 -8 -8 144 -76 206
-92 39 -10 71 -21 71 -24 0 -4 -47 -34 -104 -69 -125 -75 -251 -128 -417 -176
l-124 -35 145 4 c80 3 183 12 228 21 113 22 267 75 360 125 45 25 70 34 61 23
-43 -49 -18 -28 80 67 81 79 133 120 214 168 295 175 509 220 891 187 210 -18
310 -12 414 27 112 42 236 194 247 305 l5 48 -13 -40 c-19 -55 -34 -82 -78
-138 -55 -70 -115 -114 -189 -139 -57 -20 -84 -23 -220 -22 -85 0 -229 4 -320
8 -141 7 -179 6 -260 -10 -96 -19 -182 -21 -232 -7 l-28 8 24 50 c25 54 74
104 135 135 31 15 45 17 72 9 61 -17 212 -23 270 -9 58 14 119 41 159 72 54
42 143 135 167 176 14 23 27 42 29 42 10 0 44 -83 50 -120 l7 -42 40 5 c24 3
50 15 64 30 l25 24 -69 70 c-65 64 -91 105 -136 216 -18 42 -34 46 -88 17z"/>
<path d="M995 1219 c-145 -27 -324 -109 -458 -209 -53 -40 -95 -75 -93 -77 2
-2 35 11 72 30 169 85 386 147 514 147 38 0 74 6 85 13 30 20 132 59 189 72
l51 12 -53 11 c-62 14 -234 14 -307 1z"/>
<path d="M2802 1148 c37 -118 11 -287 -66 -424 -36 -65 -15 -45 39 36 62 93
85 162 85 253 0 58 -5 83 -25 124 -40 80 -57 86 -33 11z"/>
<path d="M2693 1145 c0 -22 2 -30 4 -17 2 12 2 30 0 40 -3 9 -5 -1 -4 -23z"/>
<path d="M2758 1065 c-9 -108 -67 -244 -134 -310 -112 -112 -202 -135 -545
-135 -272 0 -369 -11 -524 -61 -220 -70 -483 -267 -614 -459 l-44 -65 90 95
c119 125 300 252 451 316 32 13 33 13 27 -9 -16 -55 -90 -189 -144 -265 -33
-45 -57 -82 -54 -82 3 0 49 32 102 72 139 103 260 228 300 309 l32 66 67 13
c37 6 186 16 332 20 280 9 353 19 450 62 148 66 250 272 223 448 l-9 55 -6
-70z"/>
<path d="M1460 631 c-181 -59 -385 -185 -499 -307 -119 -127 -122 -146 -5 -34
167 162 281 235 498 321 134 54 137 63 6 20z"/>
</g>
</svg>
